HIERARCHY
ROOT Pelvis
{
	OFFSET 0.000000 0.000000 0.000000
	CHANNELS 6 Xposition Yposition Zposition Xrotation Yrotation Zrotation
	JOINT LeftUpLeg_virtual
	{
		OFFSET 0.000000 0.000000 0.000000
		CHANNELS 3 Xrotation Yrotation Zrotation
		JOINT LeftUpLeg
		{
			OFFSET 8.479700 -4.795502 -0.379100
			CHANNELS 3 Xrotation Yrotation Zrotation
			JOINT LeftLeg
			{
				OFFSET 0.024144 -32.555107 0.112900
				CHANNELS 3 Xrotation Yrotation Zrotation
				JOINT LeftFoot
				{
					OFFSET -0.024144 -32.638630 -3.012600
					CHANNELS 3 Xrotation Yrotation Zrotation
					JOINT LeftToeBase
					{
						OFFSET 0.970200 -13.225400 11.864200
						CHANNELS 3 Xrotation Yrotation Zrotation
						End Site
						{
							OFFSET 0 0 0
						}
					}
				}
			}
		}
	}
	JOINT RightUpLeg_virtual
	{
		OFFSET 0.000000 0.000000 0.000000
		CHANNELS 3 Xrotation Yrotation Zrotation
		JOINT RightUpLeg
		{
			OFFSET -8.479700 -4.795502 -0.379100
			CHANNELS 3 Xrotation Yrotation Zrotation
			JOINT RightLeg
			{
				OFFSET -0.023144 -32.555092 0.112900
				CHANNELS 3 Xrotation Yrotation Zrotation
				JOINT RightFoot
				{
					OFFSET 0.023144 -32.638641 -3.012700
					CHANNELS 3 Xrotation Yrotation Zrotation
					JOINT RightToeBase
					{
						OFFSET -0.970200 -13.225400 11.864200
						CHANNELS 3 Xrotation Yrotation Zrotation
						End Site
						{
							OFFSET 0 0 0
						}
					}
				}
			}
		}
	}
	JOINT Hips_virtual
	{
		OFFSET 0.000000 0.000000 0.000000
		CHANNELS 3 Xrotation Yrotation Zrotation
		JOINT Hips
		{
			OFFSET -0.000000 -0.000000 -0.000000
			CHANNELS 3 Xrotation Yrotation Zrotation
			JOINT Spine
			{
				OFFSET 0.000000 7.722000 1.166200
				CHANNELS 3 Xrotation Yrotation Zrotation
				JOINT Spine1
				{
					OFFSET 0.000000 12.024101 0.248800
					CHANNELS 3 Xrotation Yrotation Zrotation
					JOINT Spine2
					{
						OFFSET 0.000000 11.502998 -0.491200
						CHANNELS 3 Xrotation Yrotation Zrotation
						JOINT Neck_virtual
						{
							OFFSET 0.000000 0.000000 0.000000
							CHANNELS 3 Xrotation Yrotation Zrotation
							JOINT Neck
							{
								OFFSET 0.000000 18.430702 -3.123100
								CHANNELS 3 Xrotation Yrotation Zrotation
								JOINT Head
								{
									OFFSET 0.000000 9.051102 1.034000
									CHANNELS 3 Xrotation Yrotation Zrotation
									End Site
									{
										OFFSET 0 0 0
									}
								}
							}
						}
						JOINT LeftShoulder_virtual
						{
							OFFSET 0.000000 0.000000 0.000000
							CHANNELS 3 Xrotation Yrotation Zrotation
							JOINT LeftShoulder
							{
								OFFSET 6.197800 13.665199 -4.064700
								CHANNELS 3 Xrotation Yrotation Zrotation
								JOINT LeftArm
								{
									OFFSET 7.778100 -0.187103 -1.709300
									CHANNELS 3 Xrotation Yrotation Zrotation
									JOINT LeftForeArm
									{
										OFFSET 22.049376 0.000000 0.000000
										CHANNELS 3 Xrotation Yrotation Zrotation
										JOINT LeftHand
										{
											OFFSET 23.009392 0.000000 0.000000
											CHANNELS 3 Xrotation Yrotation Zrotation
											End Site
											{
												OFFSET 0 0 0
											}
										}
									}
								}
							}
						}
						JOINT RightShoulder_virtual
						{
							OFFSET 0.000000 0.000000 0.000000
							CHANNELS 3 Xrotation Yrotation Zrotation
							JOINT RightShoulder
							{
								OFFSET -6.197800 13.665199 -4.064700
								CHANNELS 3 Xrotation Yrotation Zrotation
								JOINT RightArm
								{
									OFFSET -7.778100 -0.187103 -1.709300
									CHANNELS 3 Xrotation Yrotation Zrotation
									JOINT RightForeArm
									{
										OFFSET -22.049376 0.000000 0.000000
										CHANNELS 3 Xrotation Yrotation Zrotation
										JOINT RightHand
										{
											OFFSET -23.009392 0.000000 0.000000
											CHANNELS 3 Xrotation Yrotation Zrotation
											End Site
											{
												OFFSET 0 0 0
											}
										}
									}
								}
							}
						}
					}
				}
			}
		}
	}
}
MOTION
Frames: 7
Frame Time: 0.03333333
2.350366 64.377365 -39.067661 0.000000 0.000000 0.000000 16.370058 -76.647311 15.137157 -46.485277 -6.785221 23.853334 75.224971 15.056102 1.188180 -19.963309 5.448241 -28.702176 0.000000 0.000000 0.000000 16.370058 -76.647311 15.137157 -51.941833 -3.120827 -15.225444 81.884747 19.823053 -5.202795 -33.684509 -0.568994 1.921246 0.000000 0.000000 0.000000 16.370058 -76.647311 15.137157 0.000000 0.000001 0.000000 4.431349 9.329555 -2.957095 9.594762 18.344811 -7.012216 0.000000 0.000000 0.000000 9.594762 18.344785 -7.012209 2.735903 2.537201 0.917081 0.000000 0.000000 0.000000 9.594762 18.344785 -7.012209 4.442668 -4.896765 0.391712 -74.044851 -32.200879 -59.779564 45.630018 -71.166405 44.297390 0.000000 0.000000 0.000000 9.594762 18.344785 -7.012209 3.889433 8.333831 -7.261185 -42.000244 -3.203190 27.938520 -12.789913 47.794932 2.424368 0.000000 0.000000 0.000000 
2.664611 63.825417 -39.498825 0.000000 0.000000 0.000000 23.721478 -75.380536 21.895199 -50.111179 -7.508255 24.691043 76.214420 13.834561 0.959213 -19.745085 5.114959 -28.225504 0.000000 0.000000 0.000000 23.721478 -75.380536 21.895199 -54.942076 -2.845571 -14.719524 82.965037 18.871321 -4.705772 -33.897460 -0.572951 1.975867 0.000000 0.000000 0.000000 23.721478 -75.380536 21.895199 0.000000 0.000000 0.000000 4.534588 9.181135 -3.014889 9.805975 18.007211 -7.165119 0.000000 0.000000 0.000000 9.805977 18.007222 -7.165119 1.927735 4.490860 1.287777 0.000000 0.000000 0.000000 9.805977 18.007222 -7.165119 4.342697 -4.985463 -0.341772 -66.423275 -29.193222 -56.580512 44.445417 -70.007390 43.935772 0.000000 0.000000 0.000000 9.805977 18.007222 -7.165119 3.540732 8.113212 -5.624217 -39.216081 -4.972973 28.094475 -12.221764 46.311483 3.788312 0.000000 0.000000 0.000000 
3.008237 63.396347 -39.872021 0.000000 0.000000 0.000000 29.730413 -73.864152 27.486199 -53.603670 -8.103721 25.124001 76.847428 12.791453 0.709835 -19.304184 4.771726 -27.662316 0.000000 0.000000 0.000000 29.730413 -73.864152 27.486199 -57.813446 -2.423757 -14.341316 83.762284 17.833440 -4.321654 -33.957399 -0.705847 2.255132 0.000000 0.000000 0.000000 29.730413 -73.864152 27.486199 0.000001 0.000000 0.000000 4.639949 9.037461 -3.068765 10.016244 17.679736 -7.291492 0.000000 0.000000 0.000000 10.016238 17.679753 -7.291500 1.141876 6.463884 1.637530 0.000000 0.000000 0.000000 10.016238 17.679753 -7.291500 4.231858 -4.936950 -0.833284 -58.521395 -25.699420 -53.642656 41.104577 -69.046485 41.375862 0.000000 0.000000 0.000000 10.016238 17.679753 -7.291500 3.219522 7.942042 -3.888787 -35.652365 -7.358678 27.766288 -11.633921 45.311437 5.140172 0.000000 0.000000 0.000000 
3.361741 63.093491 -40.187279 0.000000 0.000000 0.000000 34.306626 -72.222140 31.847990 -56.809559 -8.493781 25.126794 77.128163 11.977567 0.504397 -18.732241 4.466146 -27.031930 0.000000 0.000000 0.000000 34.306626 -72.222140 31.847990 -60.427134 -1.835487 -14.093988 84.293940 16.719658 -4.048201 -33.895883 -0.907959 2.736920 0.000000 0.000000 0.000000 34.306626 -72.222140 31.847990 0.000000 0.000002 0.000000 4.754297 8.896938 -3.112285 10.238197 17.364537 -7.376340 0.000000 0.000000 0.000000 10.238197 17.364537 -7.376339 0.368221 8.396670 1.955979 0.000000 0.000000 0.000000 10.238197 17.364537 -7.376339 4.107730 -4.811337 -1.179666 -50.713034 -21.636936 -51.563188 36.144535 -68.037632 36.990235 0.000000 0.000000 0.000000 10.238197 17.364537 -7.376339 2.932176 7.881683 -2.048413 -31.285839 -10.550648 27.298306 -11.071070 45.033346 6.402680 0.000000 0.000000 0.000000 
3.695322 62.912910 -40.439930 0.000000 0.000000 0.000000 37.574428 -70.584527 35.091531 -59.577828 -8.651967 24.755693 77.075734 11.408806 0.398427 -18.095987 4.219438 -26.456605 0.000000 0.000000 0.000000 37.574428 -70.584527 35.091531 -62.639132 -1.105705 -13.956360 84.568049 15.564017 -3.871446 -33.789813 -1.130918 3.374236 0.000000 0.000000 0.000000 37.574428 -70.584527 35.091531 0.000000 -0.000001 0.000000 4.875812 8.755699 -3.133136 10.467512 17.058177 -7.399224 0.000000 0.000000 0.000000 10.467507 17.058191 -7.399235 -0.406296 10.233211 2.248006 0.000000 0.000000 0.000000 10.467507 17.058191 -7.399235 3.963817 -4.635891 -1.485583 -43.366695 -17.194679 -50.718697 30.223771 -66.614152 31.337325 0.000000 0.000000 0.000000 10.467507 17.058191 -7.399235 2.670373 7.955723 -0.110396 -26.274254 -14.550859 27.245770 -10.625654 45.470301 7.582564 0.000000 0.000000 0.000000 
3.981321 62.843384 -40.625153 0.000000 0.000000 0.000000 39.743313 -69.052249 37.387909 -61.828518 -8.596114 24.099052 76.744654 11.084822 0.417600 -17.422250 4.011600 -25.990627 0.000000 0.000000 0.000000 39.743313 -69.052249 37.387909 -64.377005 -0.279437 -13.904023 84.640763 14.390549 -3.768948 -33.662925 -1.353290 4.118981 0.000000 0.000000 0.000000 39.743313 -69.052249 37.387909 0.000000 0.000001 0.000000 4.995763 8.608856 -3.121851 10.686050 16.753648 -7.344105 0.000000 0.000000 0.000000 10.686043 16.753634 -7.344099 -1.174907 11.918199 2.519435 0.000000 0.000000 0.000000 10.686043 16.753634 -7.344099 3.790966 -4.413263 -1.838694 -36.738997 -12.726650 -51.152315 24.206061 -64.490154 25.260189 0.000000 0.000000 0.000000 10.686043 16.753634 -7.344099 2.420003 8.148584 1.888596 -20.905461 -19.059441 28.154856 -10.397238 46.309075 8.736931 0.000000 0.000000 0.000000 
4.201984 62.870956 -40.740318 0.000000 0.000000 0.000000 41.018858 -67.679661 38.896124 -63.550068 -8.365307 23.252778 76.216216 10.969401 0.547119 -16.781578 3.824081 -25.610213 0.000000 0.000000 0.000000 41.018858 -67.679661 38.896124 -65.592957 0.578053 -13.928219 84.526139 13.232770 -3.713955 -33.531694 -1.572925 4.922458 0.000000 0.000000 0.000000 41.018858 -67.679661 38.896124 0.000000 0.000000 0.000000 5.102494 8.452339 -3.075839 10.870824 16.443014 -7.208343 0.000000 0.000000 0.000000 10.870822 16.442997 -7.208343 -1.908099 13.399170 2.768694 0.000000 0.000000 0.000000 10.870822 16.442997 -7.208343 3.581013 -4.135686 -2.293952 -30.959881 -8.583850 -52.621581 18.886465 -61.626393 19.603418 0.000000 0.000000 0.000000 10.870822 16.442997 -7.208343 2.171231 8.417437 3.878702 -15.534620 -23.529102 30.299020 -10.438004 47.028612 9.884638 0.000000 0.000000 0.000000 
